<?xml version="1.0" standalone="no"?>
<!DOCTYPE svg PUBLIC "-//W3C//DTD SVG 20010904//EN"
 "http://www.w3.org/TR/2001/REC-SVG-20010904/DTD/svg10.dtd">
<svg version="1.0" xmlns="http://www.w3.org/2000/svg"
 width="587.000000pt" height="746.000000pt" viewBox="0 0 587.000000 746.000000"
 preserveAspectRatio="xMidYMid meet">
<metadata>
Created by potrace 1.16, written by Peter Selinger 2001-2019
</metadata>
<g transform="translate(0.000000,746.000000) scale(0.100000,-0.100000)"
fill="#000000" stroke="none">
<path d="M3090 7450 c-190 -7 -298 -16 -619 -56 -193 -24 -250 -40 -349 -98
-114 -68 -286 -207 -319 -259 -14 -22 -38 -69 -54 -104 -15 -35 -48 -96 -73
-137 -69 -114 -112 -203 -144 -301 -49 -146 -160 -431 -196 -504 -23 -44 -43
-110 -60 -191 -22 -109 -36 -171 -62 -292 l-6 -28 -105 0 c-206 0 -408 -32
-504 -80 -59 -30 -242 -188 -280 -242 -13 -18 -47 -61 -76 -95 -65 -77 -105
-156 -137 -266 -56 -191 -64 -288 -76 -817 -5 -245 -15 -541 -21 -658 -11
-190 -11 -232 4 -373 30 -279 74 -509 153 -804 77 -288 97 -340 157 -421 60
-79 153 -141 289 -194 114 -43 140 -48 350 -62 l188 -12 0 -93 c0 -271 100
-788 178 -922 64 -110 243 -273 377 -343 75 -39 180 -63 320 -73 44 -3 130
-10 190 -16 107 -11 113 -10 186 15 42 14 89 26 105 26 96 0 277 87 506 244
95 64 138 175 199 501 15 79 48 464 49 571 0 19 6 21 43 20 23 0 97 3 165 8
l122 9 0 -24 c0 -13 -4 -40 -10 -59 -22 -82 -30 -208 -20 -302 14 -127 65
-374 91 -443 35 -94 121 -174 230 -214 75 -28 278 -61 374 -62 44 0 179 4 300
10 175 8 234 14 287 31 111 34 212 130 267 252 54 119 60 141 142 553 16 83
41 202 54 265 40 190 73 384 99 585 32 237 63 445 77 508 16 71 28 227 29 367
0 69 5 208 12 310 10 166 9 216 -11 490 -12 168 -26 341 -32 385 -5 44 -13
129 -18 188 l-9 109 77 76 c86 86 163 208 266 422 140 289 82 696 -144 1020
-179 256 -284 340 -537 425 -79 27 -80 28 -97 74 -21 59 -161 300 -242 416
-102 145 -151 193 -270 264 -59 35 -126 78 -149 96 -65 49 -216 133 -292 162
-206 78 -592 158 -733 151 -20 -1 -128 -4 -241 -8z m490 -444 c36 -10 110 -29
165 -43 131 -33 170 -49 340 -139 155 -82 249 -153 312 -236 52 -67 126 -188
119 -195 -2 -3 -101 3 -218 13 -393 32 -680 22 -1033 -37 -342 -57 -512 -126
-639 -259 -93 -98 -145 -198 -189 -370 -30 -117 -32 -135 -31 -290 0 -155 3
-178 46 -385 76 -370 114 -439 393 -724 228 -232 275 -266 475 -336 97 -34
117 -37 270 -45 91 -5 267 -9 392 -10 220 0 234 1 400 34 95 19 236 46 312 60
77 15 178 40 225 57 139 49 127 51 135 -28 42 -436 50 -668 37 -1023 -11 -296
-21 -396 -61 -660 -11 -69 -31 -208 -45 -310 -28 -211 -66 -435 -100 -595 -13
-60 -31 -162 -40 -225 -33 -231 -93 -458 -131 -501 -12 -13 -51 -17 -207 -24
-105 -5 -217 -8 -247 -8 -78 2 -208 23 -219 37 -5 6 -21 82 -36 168 -29 170
-30 147 8 397 15 97 17 99 117 101 36 0 82 7 102 14 48 17 208 164 249 228 41
63 49 131 20 168 -23 30 -37 30 -341 11 -107 -6 -331 -15 -497 -20 -165 -5
-306 -11 -311 -15 -6 -3 -66 -1 -134 6 -144 13 -200 7 -255 -29 -100 -64 -118
-135 -138 -538 -21 -390 -36 -512 -72 -574 -38 -67 -89 -112 -183 -160 -78
-41 -92 -45 -214 -57 -162 -17 -328 -18 -398 -3 -60 13 -112 46 -198 125 -66
61 -70 71 -111 254 -62 281 -60 255 -69 840 -13 932 -30 1615 -45 1865 -19
306 -19 638 0 808 8 73 19 227 25 342 6 116 15 257 21 315 6 58 13 144 14 191
2 50 17 141 35 217 17 72 41 186 55 251 16 78 36 144 58 188 19 37 42 93 51
123 10 30 46 132 81 225 35 94 70 190 79 215 9 25 52 106 96 180 44 73 80 139
80 146 0 20 81 104 147 151 77 55 119 66 333 89 85 9 211 22 280 29 182 20
604 14 690 -9z m682 -1011 c409 -32 509 -46 628 -92 260 -99 293 -119 378
-225 102 -128 153 -257 168 -421 6 -74 6 -74 -24 -95 -79 -57 -348 -151 -497
-175 -543 -88 -742 -110 -975 -111 -230 0 -257 5 -412 85 -62 33 -93 59 -173
144 -204 221 -270 322 -333 510 -46 141 -47 149 -9 186 91 88 186 125 407 155
277 38 467 62 495 63 17 0 173 -10 347 -24z m-3105 -1042 c-4 -60 -12 -200
-17 -313 -6 -113 -16 -221 -21 -240 -20 -66 -23 -554 -5 -850 9 -151 21 -516
26 -810 5 -294 13 -607 17 -694 l6 -159 -149 7 c-156 7 -226 22 -306 62 -40
20 -51 33 -78 89 -60 125 -94 243 -110 375 -5 41 -23 158 -39 260 -56 349 -56
360 -32 1129 12 382 26 716 31 741 28 150 48 195 130 295 72 88 142 153 183
170 52 21 190 41 301 44 l69 1 -6 -107z"/>
</g>
</svg>
